# xmcd
#
# Track frame offsets:
#	150
#	12824
#	25651
#	45378
#	54530
#	69907
#	99684
#	113786
#	123613
#	145440
#	163817
#	187508
#	198685
#
# Disc length: 2819 seconds
#
# Revision: 1
# Processed by: cddbd v1.5.2PL0 Copyright (c) Steve Scherf et al.
# Submitted via: EZCDAudioConverter 7.0.9.1
#
DISCID=ad0b010d
DTITLE=Cream - Fresh Cream
DYEAR=1968
DGENRE=blues
TTITLE0=I Feel Free
TTITLE1=N.S.U.
TTITLE2=Sleepy Time Time
TTITLE3=Dreaming
TTITLE4=Sweet Wine
TTITLE5=Spoonful
TTITLE6=Cat’s Squirrel
TTITLE7=Four Until Late
TTITLE8=Rollin’ and Tumblin’
TTITLE9=I’m So Glad
TTITLE10=Toad
TTITLE11=Wrapping Paper
TTITLE12=The Coffee Song
EXTD=
EXTT0=
EXTT1=
EXTT2=
EXTT3=
EXTT4=
EXTT5=
EXTT6=
EXTT7=
EXTT8=
EXTT9=
EXTT10=
EXTT11=
EXTT12=
PLAYORDER=
